SplineFontDB: 3.2
FontName: hmakranten_liparxe
FullName: hmakranten liparxe
FamilyName: hmakranten liparxe
Weight: Regular
Copyright: Copyright (c) 2020, skytomo
Version: 000.100
ItalicAngle: 0
UnderlinePosition: -98
UnderlineWidth: 48
Ascent: 800
Descent: 200
InvalidEm: 0
sfntRevision: 0x00010000
LayerCount: 2
Layer: 0 0 "+gMyXYgAA" 1
Layer: 1 0 "+Uk2XYgAA" 0
XUID: [1021 312 -1532662255 9093]
StyleMap: 0x0040
FSType: 0
OS2Version: 3
OS2_WeightWidthSlopeOnly: 0
OS2_UseTypoMetrics: 0
CreationTime: 1607827417
ModificationTime: 1608168965
PfmFamily: 17
TTFWeight: 400
TTFWidth: 5
LineGap: 0
VLineGap: 0
Panose: 2 0 5 3 0 0 0 0 0 0
OS2TypoAscent: 1000
OS2TypoAOffset: 0
OS2TypoDescent: -391
OS2TypoDOffset: 0
OS2TypoLinegap: 0
OS2WinAscent: 1000
OS2WinAOffset: 0
OS2WinDescent: 391
OS2WinDOffset: 0
HheadAscent: 1000
HheadAOffset: 0
HheadDescent: -391
HheadDOffset: 0
OS2SubXSize: 650
OS2SubYSize: 699
OS2SubXOff: 0
OS2SubYOff: 140
OS2SupXSize: 650
OS2SupYSize: 699
OS2SupXOff: 0
OS2SupYOff: 479
OS2StrikeYSize: 49
OS2StrikeYPos: 258
OS2CapHeight: 645
OS2XHeight: 475
OS2Vendor: 'PfEd'
OS2CodePages: 00000001.00000000
OS2UnicodeRanges: 00000003.00000000.00000000.00000000
MarkAttachClasses: 1
DEI: 91125
LangName: 1033 "" "" "" "FontForge 2.0 : hmakranten liparxe : 14-12-2020" "" "" "" "" "" "" "" "" "" "SIL Open Font License"
Encoding: UnicodeBmp
UnicodeInterp: none
NameList: AGL For New Fonts
DisplaySize: -48
AntiAlias: 1
FitToEm: 0
WidthSeparation: 150
WinInfo: 48 16 3
BeginPrivate: 2
BlueValues 55 [-12 0 486 498 518 530 574 586 638 650 656 668 712 724]
BlueShift 1 0
EndPrivate
BeginChars: 65537 86

StartChar: .notdef
Encoding: 65536 -1 0
Width: 500
Flags: MW
HStem: 0 50<100 400 100 450> 446 50<100 400 100 100>
VStem: 50 50<50 50 50 446> 400 50<50 446 446 446>
LayerCount: 2
Fore
SplineSet
50 0 m 1
 50 496 l 1
 450 496 l 1
 450 0 l 1
 50 0 l 1
100 50 m 1
 400 50 l 1
 400 446 l 1
 100 446 l 1
 100 50 l 1
EndSplineSet
Validated: 1
EndChar

StartChar: exclam
Encoding: 33 33 1
Width: 228
Flags: W
HStem: 0 21G<74 157> 556 126<70.6773 160.416>
VStem: 56 119<569.757 668.41> 74 83<0 297.538> 87 57<231.455 472>
LayerCount: 2
Fore
SplineSet
74 0 m 5xd0
 76 94 l 5
 87 472 l 5
 144 472 l 5xc8
 155 94 l 5
 157 0 l 5
 74 0 l 5xd0
116 556 m 4
 83 556 56 582 56 620 c 4
 56 656 83 682 116 682 c 4
 148 682 175 656 175 620 c 4xe0
 175 582 148 556 116 556 c 4
EndSplineSet
Validated: 1
EndChar

StartChar: quotedbl
Encoding: 34 34 2
Width: 387
Flags: HMW
HStem: 431 259<80 80 80 130 257 307 257 257>
VStem: 64 82<598 598> 241 82<598 598>
LayerCount: 2
Fore
SplineSet
80 431 m 1
 64 598 l 1
 61 690 l 1
 149 690 l 1
 146 598 l 1
 130 431 l 1
 80 431 l 1
257 431 m 1
 241 598 l 1
 238 690 l 1
 326 690 l 1
 323 598 l 1
 307 431 l 1
 257 431 l 1
EndSplineSet
Validated: 1
EndChar

StartChar: numbersign
Encoding: 35 35 3
Width: 210
Flags: HMW
HStem: 431 259<80 80 80 130>
VStem: 64 82<598 598>
LayerCount: 2
Fore
SplineSet
80 431 m 1
 64 598 l 1
 61 690 l 1
 149 690 l 1
 146 598 l 1
 130 431 l 1
 80 431 l 1
EndSplineSet
Validated: 1
EndChar

StartChar: quotesingle
Encoding: 39 39 4
Width: 385
Flags: HMW
HStem: 424 74<96 122.5 84.5 126.5>
VStem: 229 82<0 312 0 712>
LayerCount: 2
Fore
SplineSet
311 0 m 1
 229 0 l 1
 229 312 l 1
 196 394 147 424 106 424 c 0
 86 424 76 422 61 418 c 1
 43 488 l 1
 59 495 74 498 95 498 c 0
 150 498 200 459 233 398 c 1
 236 398 l 1
 236 712 l 1
 311 712 l 1
 311 0 l 1
EndSplineSet
Validated: 1
EndChar

StartChar: parenleft
Encoding: 40 40 5
Width: 286
Flags: HMW
VStem: 63 68<202 354 202 366>
LayerCount: 2
Fore
SplineSet
195 -176 m 1
 112 -42 63 102 63 278 c 0
 63 454 112 598 195 732 c 1
 246 708 l 1
 169 581 131 430 131 278 c 0
 131 126 169 -25 246 -152 c 1
 195 -176 l 1
EndSplineSet
Validated: 1
EndChar

StartChar: parenright
Encoding: 41 41 6
Width: 283
Flags: HMW
VStem: 154 68<202 354>
LayerCount: 2
Fore
SplineSet
90 -176 m 1
 39 -152 l 1
 116 -25 154 126 154 278 c 0
 154 430 116 581 39 708 c 1
 90 732 l 1
 173 598 222 454 222 278 c 0
 222 102 173 -42 90 -176 c 1
EndSplineSet
Validated: 1
EndChar

StartChar: plus
Encoding: 43 43 7
Width: 549
Flags: HMW
HStem: 299 62<61 243 61 243 308 490>
VStem: 243 65<299 556 361 556 361 556>
LayerCount: 2
Fore
SplineSet
243 299 m 1
 61 299 l 1
 61 361 l 1
 243 361 l 1
 243 556 l 1
 308 556 l 1
 308 361 l 1
 490 361 l 1
 490 299 l 1
 243 299 l 1
EndSplineSet
Validated: 1
EndChar

StartChar: hyphen
Encoding: 45 45 8
Width: 367
Flags: HMW
HStem: 219 63<69 299 69 299>
VStem: 69 230<219 282 219 282>
LayerCount: 2
Fore
SplineSet
69 219 m 1
 69 282 l 1
 299 282 l 1
 299 219 l 1
 69 219 l 1
EndSplineSet
Validated: 1
EndChar

StartChar: zero
Encoding: 48 48 9
Width: 531
Flags: HMW
HStem: -12 66<229.5 304 229.5 330.5> 584 66<229.5 304>
VStem: 62 80<227.5 414.5 227.5 428> 391 80<227.5 414.5>
LayerCount: 2
Fore
SplineSet
267 -12 m 0
 139 -12 62 107 62 321 c 0
 62 535 139 650 267 650 c 0
 394 650 471 535 471 321 c 0
 471 107 394 -12 267 -12 c 0
267 54 m 0
 341 54 391 134 391 321 c 0
 391 508 341 584 267 584 c 0
 192 584 142 508 142 321 c 0
 142 134 192 54 267 54 c 0
EndSplineSet
Validated: 1
EndChar

StartChar: one
Encoding: 49 49 10
Width: 494
Flags: HMW
HStem: 0 21G<72 72 72 155> 568 70<155 450 155 155>
VStem: 72 83<0 568 0 638 0 638>
LayerCount: 2
Fore
SplineSet
72 0 m 1
 72 638 l 1
 450 638 l 1
 450 568 l 1
 155 568 l 1
 155 0 l 1
 72 0 l 1
EndSplineSet
Validated: 1
EndChar

StartChar: four
Encoding: 52 52 11
Width: 521
Flags: HMW
HStem: 0 71<51 57.5 51 57.5 398 463> 583 67<214.5 281.5>
VStem: 380 80<330.5 439>
LayerCount: 2
Fore
SplineSet
51 0 m 1
 51 71 l 1
 64 71 189 70 199 70 c 1
 320 190 380 281 380 380 c 0
 380 498 322 583 241 583 c 0
 188 583 131 549 94 506 c 1
 48 551 l 1
 101 611 169 650 251 650 c 0
 369 650 460 518 460 385 c 0
 460 261 389 168 291 65 c 1
 326 68 365 71 398 71 c 2
 463 71 l 1
 463 0 l 1
 51 0 l 1
EndSplineSet
Validated: 1
EndChar

StartChar: six
Encoding: 54 54 12
Width: 565
Flags: HMW
HStem: -12 68<241.5 325 241.5 342.5> 430 208<242 325 242 325>
VStem: 58 85<186.5 298 186.5 314> 242 82<494 638> 423 85<186.5 298>
CounterMasks: 1 38
LayerCount: 2
Fore
SplineSet
242 638 m 1
 325 638 l 1
 324 494 l 1
 425 475 508 386 508 242 c 0
 508 81 402 -12 283 -12 c 0
 164 -12 58 81 58 242 c 0
 58 386 141 475 242 494 c 1
 242 638 l 1
283 56 m 0
 367 56 423 131 423 242 c 0
 423 354 367 430 283 430 c 0
 200 430 143 354 143 242 c 0
 143 131 200 56 283 56 c 0
EndSplineSet
Validated: 1
EndChar

StartChar: nine
Encoding: 57 57 13
Width: 526
Flags: HMW
HStem: -12 65<215.5 287.5 215.5 309.5> 328 62<214.5 266 185 274.5> 531 21G<116 116> 581 69<201 265.5>
VStem: 58 78<151 234.5 151 258.5> 389 78
LayerCount: 2
Fore
SplineSet
254 328 m 0
 175 328 136 276 136 193 c 0
 136 109 184 53 247 53 c 0
 328 53 377 120 387 244 c 1
 347 303 295 328 254 328 c 0
247 -12 m 0
 144 -12 58 71 58 193 c 0
 58 324 130 390 240 390 c 0
 292 390 349 359 389 310 c 1
 385 512 310 581 221 581 c 0
 181 581 142 562 116 531 c 1
 70 582 l 1
 106 621 155 650 224 650 c 0
 351 650 467 551 467 295 c 0
 467 90 372 -12 247 -12 c 0
EndSplineSet
Validated: 1
EndChar

StartChar: colon
Encoding: 58 58 14
Width: 235
Flags: HMW
HStem: -12 126<102.5 135> 349 126<102.5 135>
VStem: 59 119<32 69 393 430>
LayerCount: 2
Fore
SplineSet
119 349 m 0
 86 349 59 375 59 411 c 0
 59 449 86 475 119 475 c 0
 151 475 178 449 178 411 c 0
 178 375 151 349 119 349 c 0
119 -12 m 0
 86 -12 59 14 59 50 c 0
 59 88 86 114 119 114 c 0
 151 114 178 88 178 50 c 0
 178 14 151 -12 119 -12 c 0
EndSplineSet
Validated: 1
EndChar

StartChar: semicolon
Encoding: 59 59 15
Width: 253
Flags: HMW
HStem: -1 115<116.5 132.5> 349 126<112.5 145>
VStem: 69 119<393 430> 141 61
LayerCount: 2
Fore
SplineSet
129 349 m 0xe0
 96 349 69 375 69 411 c 0
 69 449 96 475 129 475 c 0
 161 475 188 449 188 411 c 0
 188 375 161 349 129 349 c 0xe0
71 -170 m 1
 51 -122 l 1
 108 -97 141 -53 141 0 c 5
 138 -1 134 -1 131 -1 c 0
 99 -1 72 19 72 56 c 0
 72 92 100 114 133 114 c 0
 176 114 202 77 202 17 c 0xd0
 202 -69 152 -136 71 -170 c 1
EndSplineSet
Validated: 1
EndChar

StartChar: less
Encoding: 60 60 16
Width: 550
Flags: W
LayerCount: 2
Fore
SplineSet
488 131 m 1
 59 299 l 1
 59 365 l 1
 488 533 l 1
 488 462 l 1
 277 384 l 1
 143 334 l 1
 143 330 l 1
 277 280 l 1
 488 202 l 1
 488 131 l 1
EndSplineSet
Validated: 1
EndChar

StartChar: greater
Encoding: 62 62 17
Width: 545
Flags: W
LayerCount: 2
Fore
SplineSet
59 131 m 1
 59 202 l 1
 270 280 l 1
 404 330 l 1
 404 334 l 1
 270 384 l 1
 59 462 l 1
 59 533 l 1
 488 365 l 1
 488 299 l 1
 59 131 l 1
EndSplineSet
Validated: 1
EndChar

StartChar: F
Encoding: 70 70 23
Width: 549
Flags: HMW
HStem: 0 21G<79 79 79 161 386 386> 427 72<241 305>
VStem: 79 82<0 297 0 308 0 370> 386 82<0 297 297 308 -27 342.5>
LayerCount: 2
Fore
SplineSet
225 536 m 1
 183 577 l 1
 353 744 l 1
 404 689 l 1
 225 536 l 1
79 0 m 1
 79 308 l 2
 79 432 171 499 273 499 c 0
 375 499 468 399 468 308 c 2
 468 -27 l 1
 129 -132 l 1
 508 -198 l 1
 508 -256 l 1
 47 -168 l 1
 47 -105 l 1
 386 0 l 1
 386 297 l 2
 386 388 337 427 273 427 c 0
 209 427 161 392 161 297 c 2
 161 0 l 1
 79 0 l 1
EndSplineSet
Validated: 1
EndChar

StartChar: V
Encoding: 86 86 38
Width: 848
Flags: HMW
HStem: 0 21G<71 71 71 153 378 378 378 460 685 685> 427 72<233 295.07 214 297 541.93 604>
VStem: 71 82<0 297 0 308 0 370> 378 82<0 297 0 344> 685 82<0 297 297 308 -27 344>
CounterMasks: 1 38
LayerCount: 2
Fore
SplineSet
378 536 m 1
 336 577 l 1
 506 744 l 1
 557 689 l 1
 378 536 l 1
71 0 m 1
 71 308 l 2
 71 432 163 499 265 499 c 0
 325 499 382 476 419 431 c 1
 455 476 512 499 572 499 c 0
 674 499 767 432 767 308 c 2
 767 -27 l 1
 195 -132 l 1
 807 -210 l 1
 807 -256 l 1
 113 -168 l 1
 113 -105 l 1
 685 0 l 1
 685 297 l 2
 685 391 636 427 572 427 c 0
 508 427 460 392 460 297 c 2
 460 0 l 1
 378 0 l 1
 378 297 l 2
 378 391 329 427 265 427 c 0
 201 427 153 392 153 297 c 2
 153 0 l 1
 71 0 l 1
EndSplineSet
Validated: 1
EndChar

StartChar: X
Encoding: 88 88 40
Width: 839
Flags: HMW
HStem: 0 21G<71 71 71 153 378 378 378 460 685 685> 427 72<233 295.07 214 297 541.93 604>
VStem: 71 82<0 297 0 308 0 370> 378 82<0 297 0 344> 685 82<0 297 297 308 -27 344>
CounterMasks: 1 38
LayerCount: 2
Fore
SplineSet
378 536 m 1
 336 577 l 1
 506 744 l 1
 557 689 l 1
 378 536 l 1
71 0 m 1
 71 308 l 2
 71 432 163 499 265 499 c 0
 325 499 382 476 419 431 c 1
 455 476 512 499 572 499 c 0
 674 499 767 432 767 308 c 2
 767 -27 l 1
 195 -256 l 1
 113 -229 l 1
 685 0 l 1
 685 297 l 2
 685 391 636 427 572 427 c 0
 508 427 460 392 460 297 c 2
 460 0 l 1
 378 0 l 1
 378 297 l 2
 378 391 329 427 265 427 c 0
 201 427 153 392 153 297 c 2
 153 0 l 1
 71 0 l 1
EndSplineSet
Validated: 1
EndChar

StartChar: bracketleft
Encoding: 91 91 43
Width: 297
Flags: HMW
HStem: -152 47<137 254 137 254> 661 47<137 254 137 137>
VStem: 75 62<-105 661 -105 708 -105 708> 75 179<-152 -105 661 708>
LayerCount: 2
Fore
SplineSet
75 -152 m 1xd0
 75 708 l 1
 254 708 l 1
 254 661 l 1xd0
 137 661 l 1
 137 -105 l 1xe0
 254 -105 l 1
 254 -152 l 1
 75 -152 l 1xd0
EndSplineSet
Validated: 1
EndChar

StartChar: bracketright
Encoding: 93 93 44
Width: 296
Flags: HMW
HStem: -152 47<43 159 43 159 43 221> 661 47<43 159 43 221>
VStem: 43 178<-152 -105 -105 -105 661 708 -152 708> 159 62<-105 661 661 661>
LayerCount: 2
Fore
SplineSet
43 -152 m 1xe0
 43 -105 l 1xe0
 159 -105 l 1
 159 661 l 1xd0
 43 661 l 1
 43 708 l 1
 221 708 l 1
 221 -152 l 1
 43 -152 l 1xe0
EndSplineSet
Validated: 1
EndChar

StartChar: a
Encoding: 97 97 45
Width: 500
Flags: W
HStem: 0 62<152 333> 225 57<152 337.931> 421 65<152 404>
VStem: 74 78<62 225 282 421> 363 76<90.2786 200.825>
LayerCount: 2
Fore
SplineSet
74 0 m 1
 74 486 l 1
 404 486 l 1
 404 421 l 1
 152 421 l 1
 152 282 l 1
 251 282 l 2
 359 282 439 249 439 146 c 0
 439 43 356 0 255 0 c 2
 74 0 l 1
152 62 m 1
 243 62 l 2
 323 62 363 89 363 148 c 0
 363 204 322 225 242 225 c 2
 152 225 l 1
 152 62 l 1
EndSplineSet
Validated: 1
EndChar

StartChar: b
Encoding: 98 98 46
Width: 575
Flags: HMW
HStem: -12 68<246.5 330 246.5 347.5> 430 282<247 330 247 330>
VStem: 63 85<186.5 298 186.5 314> 247 82<494 712> 428 85<186.5 298>
CounterMasks: 1 38
LayerCount: 2
Fore
SplineSet
247 712 m 1
 330 712 l 1
 329 494 l 1
 430 475 513 386 513 242 c 0
 513 81 407 -12 288 -12 c 0
 169 -12 63 81 63 242 c 0
 63 386 146 475 247 494 c 1
 247 712 l 1
288 56 m 0
 372 56 428 131 428 242 c 0
 428 354 372 430 288 430 c 0
 205 430 148 354 148 242 c 0
 148 131 205 56 288 56 c 0
EndSplineSet
Validated: 1
EndChar

StartChar: c
Encoding: 99 99 47
Width: 503
Flags: W
HStem: -217 70<132.764 302.345> 127 66<154 285.006> 428 70<130.69 299.601>
VStem: 342 82<246.372 386.423> 365 82<-83.2958 69.8833>
LayerCount: 2
Fore
SplineSet
235 -217 m 0xe8
 139 -217 77 -179 35 -134 c 1
 76 -84 l 1
 112 -119 156 -147 227 -147 c 0
 304 -147 365 -91 365 -7 c 0xe8
 365 73 313 127 213 127 c 2
 154 127 l 1
 154 193 l 1
 206 193 l 2
 294 193 342 252 342 316 c 0
 342 392 294 428 222 428 c 0
 171 428 135 415 95 383 c 1
 60 438 l 1
 109 476 159 498 227 498 c 0
 334 498 424 443 424 327 c 0xf0
 424 254 378 195 315 169 c 1
 315 165 l 1
 386 148 447 92 447 -9 c 0
 447 -138 352 -217 235 -217 c 0xe8
EndSplineSet
Validated: 1
EndChar

StartChar: d
Encoding: 100 100 48
Width: 712
Flags: HMW
HStem: 0 67<317 317 317 396> 466 20G<70 152 152 152 317 396 396 396 560 643 643 643>
VStem: 70 82<200 204 204 486> 317 79<0 0 67 486> 560 83<204 486>
LayerCount: 2
Fore
SplineSet
317 0 m 1
 162 7 70 88 70 200 c 2
 70 486 l 1
 152 486 l 1
 152 204 l 2
 152 121 208 72 317 67 c 1
 317 486 l 1
 396 486 l 1
 396 67 l 1
 505 73 560 121 560 204 c 2
 560 486 l 1
 643 486 l 1
 643 200 l 2
 643 88 550 7 396 0 c 1
 317 0 l 1
EndSplineSet
Validated: 1
EndChar

StartChar: e
Encoding: 101 101 49
Width: 533
Flags: W
HStem: -12 71<183.515 303.766> 0 21G<388.158 458> 466 20G<71 154 376 458>
VStem: 71 83<91.6143 486> 376 82<116.598 486> 390 68<0 76>
LayerCount: 2
Fore
SplineSet
220 -12 m 0xb4
 117 -12 71 54 71 178 c 2
 71 486 l 1
 154 486 l 1
 154 189 l 2
 154 98 181 59 245 59 c 0
 295 59 330 84 376 141 c 1
 376 486 l 1
 458 486 l 1xb8
 458 0 l 1
 390 0 l 1x74
 383 76 l 1
 380 76 l 1
 335 23 287 -12 220 -12 c 0xb4
EndSplineSet
Validated: 1
EndChar

StartChar: f
Encoding: 102 102 50
Width: 848
Flags: HMW
HStem: 0 21G<71 71 71 153 378 378 378 460 685 685> 427 72<233 295.07 214 297 541.93 604>
VStem: 71 82<0 297 0 308 0 370> 378 82<0 297 0 344> 685 82<0 297 297 308 -27 344>
LayerCount: 2
Fore
SplineSet
71 0 m 1
 71 308 l 2
 71 432 163 499 265 499 c 0
 325.139648438 499 382.151367188 475.708007812 418.81640625 431.173828125 c 1
 455.196289062 475.708007812 511.860351562 499 572 499 c 0
 674 499 767 432 767 308 c 2
 767 -27 l 1
 195 -132 l 1
 807 -210 l 1
 807 -256 l 1
 113 -168 l 1
 113 -105 l 1
 685 0 l 1
 685 297 l 2
 685 391 636 427 572 427 c 0
 508 427 460 391.54296875 460 297 c 2
 460 0 l 1
 378 0 l 1
 378 297 l 2
 378 391 329 427 265 427 c 0
 201 427 153 391.54296875 153 297 c 2
 153 0 l 1
 71 0 l 1
EndSplineSet
Validated: 524289
EndChar

StartChar: g
Encoding: 103 103 51
Width: 556
Flags: W
HStem: -140 100<140.438 223.562 334.121 415.879> 0 21G<74 157 399 482> 416 70<157 399>
VStem: 74 83<0 416> 132 100<-131.562 -48.4375> 326 98<-131.562 -48.4375> 399 83<0 416>
LayerCount: 2
Fore
SplineSet
182 -140 m 0xe8
 154 -140 132 -118 132 -90 c 0
 132 -62 154 -40 182 -40 c 0
 210 -40 232 -62 232 -90 c 0
 232 -118 210 -140 182 -140 c 0xe8
375 -140 m 0
 347 -140 326 -118 326 -90 c 0
 326 -62 347 -40 375 -40 c 0
 403 -40 424 -62 424 -90 c 0xe4
 424 -118 403 -140 375 -140 c 0
74 0 m 1xf2
 74 486 l 1
 482 486 l 1
 482 0 l 1
 399 0 l 1
 399 416 l 1
 157 416 l 1
 157 0 l 1
 74 0 l 1xf2
EndSplineSet
Validated: 1
EndChar

StartChar: h
Encoding: 104 104 52
Width: 505
Flags: HMW
HStem: -12 68<254.5 321> 430 68<257 321>
VStem: 64 85<186.5 298 186.5 323.5>
LayerCount: 2
Fore
SplineSet
292 -12 m 0
 163 -12 64 81 64 242 c 0
 64 405 173 498 298 498 c 0
 362 498 406 473 440 441 c 1
 399 389 l 1
 372 414 341 430 301 430 c 0
 213 430 149 354 149 242 c 0
 149 131 210 56 299 56 c 0
 344 56 384 76 413 102 c 1
 449 50 l 1
 405 10 350 -12 292 -12 c 0
EndSplineSet
Validated: 1
EndChar

StartChar: i
Encoding: 105 105 53
Width: 536
Flags: HMW
HStem: 0 21G<74 74 74 156 381 381 381 463> 427 71<281.5 321> 466 20G<74 142 142 142>
VStem: 74 68<0 486 486 486> 74 82<0 352 0 486> 381 82<0 297 297 308 0 342.5>
LayerCount: 2
Fore
SplineSet
74 0 m 1xcc
 74 486 l 1
 142 486 l 1xb4
 149 416 l 1
 152 416 l 1
 198 462 248 498 315 498 c 0
 417 498 463 432 463 308 c 2
 463 0 l 1
 381 0 l 1
 381 297 l 2
 381 388 353 427 289 427 c 0
 239 427 205 401 156 352 c 1
 156 0 l 1
 74 0 l 1xcc
EndSplineSet
Validated: 1
EndChar

StartChar: j
Encoding: 106 106 54
Width: 536
Flags: HMW
HStem: -12 71<213 253.5> 466 20G<71 154 154 154 378 461 461 461>
VStem: 71 83<178 189 189 486> 378 83<-205 -31 -31 -31 141 486 -205 486>
LayerCount: 2
Fore
SplineSet
378 -205 m 1
 378 -31 l 1
 383 75 l 1
 336 23 287 -12 220 -12 c 0
 117 -12 71 54 71 178 c 2
 71 486 l 1
 154 486 l 1
 154 189 l 2
 154 98 181 59 245 59 c 0
 295 59 331 83 378 141 c 1
 378 486 l 1
 461 486 l 1
 461 -205 l 1
 378 -205 l 1
EndSplineSet
Validated: 1
EndChar

StartChar: k
Encoding: 107 107 55
Width: 557
Flags: HMW
HStem: 0 21G<74 74 74 157 399 399 399 482> 416 70<157 399 157 157>
VStem: 74 83<0 416 0 486 0 486> 399 83<0 416 416 416>
LayerCount: 2
Fore
SplineSet
74 0 m 1
 74 486 l 1
 482 486 l 1
 482 0 l 1
 399 0 l 1
 399 416 l 1
 157 416 l 1
 157 0 l 1
 74 0 l 1
EndSplineSet
Validated: 1
EndChar

StartChar: l
Encoding: 108 108 56
Width: 488
Flags: HMW
HStem: -12 66<201.5 259 201.5 284.5> 221 63<155 211 211 223 155 211> 433 65<199 256>
VStem: 327 81<343.5 384> 347 82<114.5 167.5>
LayerCount: 2
Fore
SplineSet
232 -12 m 0xe8
 166 -12 105 2 49 50 c 1
 85 103 l 1
 129 67 177 54 226 54 c 0
 292 54 347 88 347 141 c 0xe8
 347 194 303 221 223 221 c 2
 155 221 l 1
 155 284 l 1
 211 284 l 2
 289 284 327 313 327 359 c 0
 327 409 285 433 227 433 c 0
 171 433 134 417 95 390 c 1
 60 444 l 1
 107 477 160 498 231 498 c 0
 326 498 408 455 408 368 c 0
 408 319 379 278 327 258 c 1
 327 254 l 1xf0
 385 240 429 204 429 134 c 0
 429 44 337 -12 232 -12 c 0xe8
EndSplineSet
Validated: 1
EndChar

StartChar: m
Encoding: 109 109 57
Width: 575
Flags: HMW
HStem: -12 68<246.5 330 246.5 347.5> 430 68<246.5 329.5 228.5 330> 660 64<265.5 317>
VStem: 63 85<186.5 298 186.5 323.5> 406 78<562.5 618> 428 85<186.5 298>
LayerCount: 2
Fore
SplineSet
360 486 m 5xf8
 446 456 513 371 513 242 c 0xf4
 513 81 407 -12 288 -12 c 0
 169 -12 63 81 63 242 c 0
 63 405 169 498 288 498 c 4
 371 498 406 539 406 586 c 4
 406 650 345 660 289 660 c 4
 242 660 182 649 99 619 c 5
 79 685 l 5
 159 711 227 724 288 724 c 4
 398 724 484 668 484 586 c 4
 484 520 407 486 360 486 c 5xf8
288 56 m 0
 372 56 428 131 428 242 c 0
 428 354 372 430 288 430 c 0
 205 430 148 354 148 242 c 0
 148 131 205 56 288 56 c 0
EndSplineSet
Validated: 1
EndChar

StartChar: n
Encoding: 110 110 58
Width: 747
Flags: HMW
HStem: -12 68<430.5 510 430.5 532> 0 21G<74 156 74 74> 213 73<156 261 156 262> 430 68<430.5 510> 466 20G<74 156 156 156>
VStem: 74 82<0 213 0 286 286 486> 261 77<213 213> 599 85<186.5 298>
LayerCount: 2
Fore
SplineSet
470 56 m 0xb7
 550 56 599 131 599 242 c 0
 599 354 550 430 470 430 c 0
 391 430 338 354 338 242 c 0
 338 131 391 56 470 56 c 0xb7
474 -12 m 0
 360 -12 272 71 261 213 c 1
 156 213 l 1
 156 0 l 1
 74 0 l 1
 74 486 l 1
 156 486 l 1x6f
 156 286 l 1
 262 286 l 1
 278 420 364 498 474 498 c 0
 590 498 684 405 684 242 c 0
 684 81 590 -12 474 -12 c 0
EndSplineSet
Validated: 1
EndChar

StartChar: o
Encoding: 111 111 59
Width: 498
Flags: HMW
HStem: -12 66<177 245 177 274> 221 65<141 350 141 352 141 350> 433 65<184 245.5>
VStem: 352 83<221 221>
LayerCount: 2
Fore
SplineSet
209 -12 m 0
 145 -12 89 11 49 51 c 1
 84 101 l 1
 114 73 153 54 201 54 c 0
 289 54 346 111 352 221 c 1
 141 221 l 1
 141 286 l 1
 350 286 l 1
 338 384 283 433 208 433 c 0
 160 433 127 415 98 390 c 1
 59 439 l 1
 94 471 142 498 213 498 c 0
 335 498 435 416 435 242 c 0
 435 74 339 -12 209 -12 c 0
EndSplineSet
Validated: 1
EndChar

StartChar: p
Encoding: 112 112 60
Width: 510
Flags: HMW
HStem: 0 21G<45 45 45 131 374 374 374 463> 466 20G<57 146 146 146 366 452 452 452>
LayerCount: 2
Fore
SplineSet
45 0 m 1
 204 254 l 1
 57 486 l 1
 146 486 l 1
 211 379 l 2
 226 353 242 325 259 298 c 1
 263 298 l 1
 277 325 292 353 307 379 c 2
 366 486 l 1
 452 486 l 1
 305 245 l 1
 463 0 l 1
 374 0 l 1
 303 113 l 2
 286 142 268 172 250 200 c 1
 246 200 l 1
 229 172 213 143 197 113 c 2
 131 0 l 1
 45 0 l 1
EndSplineSet
Validated: 1
EndChar

StartChar: q
Encoding: 113 113 61
Width: 733
Flags: HMW
HStem: -12 68<140.5 180.5 140.5 205 547.5 586.5> 201 86<340 388 340 340> 430 68<141 179.5 548.5 587>
VStem: 256 84<201 201 201 298> 388 84<201 201 287 287>
LayerCount: 2
Fore
SplineSet
388 201 m 1
 340 201 l 1
 328 65 252 -12 158 -12 c 0
 123 -12 78 10 52 50 c 1
 73 102 l 1
 91 76 127 56 154 56 c 0
 207 56 256 131 256 242 c 0
 256 354 206 430 153 430 c 0
 129 430 98 414 82 389 c 1
 58 441 l 1
 79 473 116 498 155 498 c 0
 248 498 325 422 339 287 c 1
 388 287 l 1
 402 422 480 498 573 498 c 0
 612 498 649 473 670 441 c 1
 645 389 l 1
 629 414 599 430 575 430 c 0
 522 430 472 354 472 242 c 0
 472 131 521 56 574 56 c 0
 601 56 636 76 654 102 c 1
 675 50 l 1
 649 10 604 -12 569 -12 c 0
 475 -12 400 65 388 201 c 1
EndSplineSet
Validated: 1
EndChar

StartChar: r
Encoding: 114 114 62
Width: 390
Flags: HMW
HStem: 0 21G<73 73 73 155> 424 74<261.5 288> 692 20G<73 148 148 148>
VStem: 73 75<398 712 398 712 398 712> 73 82<0 312 0 712>
LayerCount: 2
Fore
SplineSet
73 0 m 1xe8
 73 712 l 1
 148 712 l 1
 148 398 l 1xf0
 151 398 l 1
 184 459 234 498 289 498 c 0
 310 498 325 495 341 488 c 1
 323 418 l 1
 308 422 298 424 278 424 c 0
 237 424 188 394 155 312 c 1
 155 0 l 1
 73 0 l 1xe8
EndSplineSet
Validated: 1
EndChar

StartChar: s
Encoding: 115 115 63
Width: 550
Flags: HMW
HStem: 0 65<157 219 219 221> 420 66<157 217 217 219 157 157>
VStem: 74 83<65 65 65 420> 401 86<165 289.5>
LayerCount: 2
Fore
SplineSet
74 0 m 1
 74 486 l 1
 217 486 l 2
 388 486 487 399 487 229 c 0
 487 58 388 0 221 0 c 2
 74 0 l 1
157 65 m 1
 219 65 l 2
 342 65 401 101 401 229 c 0
 401 350 342 420 219 420 c 2
 157 420 l 1
 157 65 l 1
EndSplineSet
Validated: 1
EndChar

StartChar: t
Encoding: 116 116 64
Width: 550
Flags: HMW
HStem: 0 21G<74 74 74 163 395 395 395 475> 466 20G<74 154 154 154 385 475 475 475>
VStem: 74 80<257 284 284 486> 395 80<0 202 202 228>
LayerCount: 2
Fore
SplineSet
74 0 m 1
 74 486 l 1
 154 486 l 1
 154 284 l 2
 154 230 150 171 146 102 c 1
 150 102 l 1
 169 137 194 182 213 212 c 2
 385 486 l 1
 475 486 l 1
 475 0 l 1
 395 0 l 1
 395 202 l 2
 395 254 397 314 403 384 c 1
 399 384 l 1
 380 348 355 303 336 273 c 2
 163 0 l 1
 74 0 l 1
EndSplineSet
Validated: 1
EndChar

StartChar: u
Encoding: 117 117 65
Width: 497
Flags: HMW
HStem: -12 68<178 244.5 177.5 271.5> 430 68<178 242>
VStem: 350 85<186.5 298>
LayerCount: 2
Fore
SplineSet
207 -12 m 0
 149 -12 94 10 50 50 c 1
 86 102 l 1
 115 76 155 56 200 56 c 0
 289 56 350 131 350 242 c 0
 350 354 286 430 198 430 c 0
 158 430 127 414 100 389 c 1
 59 441 l 1
 93 473 137 498 201 498 c 0
 326 498 435 405 435 242 c 0
 435 81 336 -12 207 -12 c 0
EndSplineSet
Validated: 1
EndChar

StartChar: v
Encoding: 118 118 66
Width: 550
Flags: HMW
HStem: 0 21G<80 80 80 162 387 387> 427 72<242 306>
VStem: 80 82<0 297 0 308 0 370> 387 82<0 297 297 308 -27 342.5>
LayerCount: 2
Fore
SplineSet
80 0 m 1
 80 308 l 2
 80 432 172 499 274 499 c 0
 376 499 469 399 469 308 c 2
 469 -27 l 1
 130 -132 l 1
 509 -198 l 1
 509 -256 l 1
 48 -168 l 1
 48 -105 l 1
 387 0 l 1
 387 297 l 2
 387 388 338 427 274 427 c 0
 210 427 162 392 162 297 c 2
 162 0 l 1
 80 0 l 1
EndSplineSet
Validated: 1
EndChar

StartChar: w
Encoding: 119 119 67
Width: 575
Flags: HMW
HStem: -12 68<246.5 330 246.5 347.5> 430 68<246.5 330>
VStem: 63 85<186.5 298 186.5 323.5> 428 85<186.5 298>
LayerCount: 2
Fore
SplineSet
288 -12 m 0
 169 -12 63 81 63 242 c 0
 63 405 169 498 288 498 c 0
 407 498 513 405 513 242 c 0
 513 81 407 -12 288 -12 c 0
288 56 m 0
 372 56 428 131 428 242 c 0
 428 354 372 430 288 430 c 0
 205 430 148 354 148 242 c 0
 148 131 205 56 288 56 c 0
EndSplineSet
Validated: 1
EndChar

StartChar: x
Encoding: 120 120 68
Width: 839
Flags: HMW
HStem: 0 21G<71 71 71 153 378 378 378 460 685 685> 427 72<233 295.07 214 297 541.93 604>
VStem: 71 82<0 297 0 308 0 370> 378 82<0 297 0 344> 685 82<0 297 297 308 -27 344>
CounterMasks: 1 38
LayerCount: 2
Fore
SplineSet
71 0 m 1
 71 308 l 2
 71 432 163 499 265 499 c 0
 325 499 382 476 419 431 c 1
 455 476 512 499 572 499 c 0
 674 499 767 432 767 308 c 2
 767 -27 l 1
 195 -256 l 1
 113 -229 l 1
 685 0 l 1
 685 297 l 2
 685 391 636 427 572 427 c 0
 508 427 460 392 460 297 c 2
 460 0 l 1
 378 0 l 1
 378 297 l 2
 378 391 329 427 265 427 c 0
 201 427 153 392 153 297 c 2
 153 0 l 1
 71 0 l 1
EndSplineSet
Validated: 1
EndChar

StartChar: y
Encoding: 121 121 69
Width: 589
Flags: HMW
HStem: -12 68<140.5 180.5 140.5 205> 0 21G<429 515 429 429> 201 86<340 429 340 340> 430 68<141 179.5> 468 20G<429 515 515 515>
VStem: 256 84<201 201 201 298> 429 86<0 201 201 201 287 488 0 488>
LayerCount: 2
Fore
SplineSet
158 -12 m 0xa6
 123 -12 78 10 52 50 c 1
 73 102 l 1
 91 76 127 56 154 56 c 0
 207 56 256 131 256 242 c 0
 256 354 206 430 153 430 c 0
 129 430 98 414 82 389 c 1
 58 441 l 1
 79 473 116 498 155 498 c 0xb6
 248 498 325 422 339 287 c 1
 429 287 l 1
 429 488 l 1
 515 488 l 1
 515 0 l 1
 429 0 l 1x6e
 429 201 l 1
 340 201 l 1
 328 65 252 -12 158 -12 c 0xa6
EndSplineSet
Validated: 1
EndChar

StartChar: z
Encoding: 122 122 70
Width: 549
Flags: HMW
HStem: -140 100<162 190 355 383> 0 21G<74 74 74 163 395 395 395 475> 466 20G<74 154 154 154 385 475 475 475>
VStem: 74 80<257 284 284 486> 126 100<-104 -76> 320 98<-104 -76> 395 80<0 202 202 228>
LayerCount: 2
Fore
SplineSet
176 -140 m 0xe8
 148 -140 126 -118 126 -90 c 0
 126 -62 148 -40 176 -40 c 0
 204 -40 226 -62 226 -90 c 0
 226 -118 204 -140 176 -140 c 0xe8
369 -140 m 0
 341 -140 320 -118 320 -90 c 0
 320 -62 341 -40 369 -40 c 0
 397 -40 418 -62 418 -90 c 0xe4
 418 -118 397 -140 369 -140 c 0
74 0 m 1xf2
 74 486 l 1
 154 486 l 1
 154 284 l 2
 154 230 150 171 146 102 c 1
 150 102 l 1
 169 137 194 182 213 212 c 2
 385 486 l 1
 475 486 l 1
 475 0 l 1
 395 0 l 1
 395 202 l 2
 395 254 397 314 403 384 c 1
 399 384 l 1
 380 348 355 303 336 273 c 2
 163 0 l 1
 74 0 l 1xf2
EndSplineSet
Validated: 1
EndChar

StartChar: braceleft
Encoding: 123 123 71
Width: 332
Flags: HMW
HStem: -152 47<204.5 289 262 289 262 289> 252 52<50 50> 661 47<244 262 262 289>
VStem: 127 67<-46.5 16.5 -46.5 17.5 539.5 602.5> 136 64<140.5 193.5 362 415>
CounterMasks: 1 e0
LayerCount: 2
Fore
SplineSet
244 -152 m 2xf0
 165 -152 127 -122 127 -19 c 0xf0
 127 54 136 107 136 174 c 0
 136 213 118 251 50 252 c 1
 50 304 l 1
 118 305 136 343 136 381 c 0xe8
 136 449 127 502 127 575 c 0
 127 678 165 708 244 708 c 2
 289 708 l 1
 289 661 l 1
 262 661 l 2
 208 661 194 635 194 570 c 0xf0
 194 509 200 457 200 389 c 0
 200 324 183 292 140 280 c 1
 140 276 l 1
 183 264 200 231 200 167 c 0xe8
 200 99 194 47 194 -14 c 0
 194 -79 208 -105 262 -105 c 2
 289 -105 l 1
 289 -152 l 1
 244 -152 l 2xf0
EndSplineSet
Validated: 1
EndChar

StartChar: braceright
Encoding: 125 125 72
Width: 330
Flags: HMW
HStem: -152 47<42 68 42 68 68 86> 252 52<280 280> 661 47<42 68 42 86>
VStem: 131 63<140.5 193.5 140.5 199 362 415> 136 67<-46.5 16.5 539.5 602.5>
CounterMasks: 1 e0
LayerCount: 2
Fore
SplineSet
42 -152 m 1xe8
 42 -105 l 1
 68 -105 l 2
 122 -105 136 -79 136 -14 c 0xe8
 136 47 131 99 131 167 c 0
 131 231 147 264 190 276 c 1
 190 280 l 1
 147 292 131 324 131 389 c 0xf0
 131 457 136 509 136 570 c 0
 136 635 122 661 68 661 c 2
 42 661 l 1
 42 708 l 1
 86 708 l 2
 166 708 203 678 203 575 c 0xe8
 203 502 194 449 194 381 c 0
 194 343 213 305 280 304 c 1
 280 252 l 1
 213 251 194 213 194 174 c 0xf0
 194 107 203 54 203 -19 c 0
 203 -122 166 -152 86 -152 c 2
 42 -152 l 1xe8
EndSplineSet
Validated: 1
EndChar

StartChar: asciitilde
Encoding: 126 126 73
Width: 541
Flags: HMW
HStem: 257 62<333 375.5 333 380.5> 341 62<167.5 210>
LayerCount: 2
Fore
SplineSet
359 257 m 0
 280 257 238 341 182 341 c 0
 153 341 128 323 105 280 c 1
 59 313 l 1
 95 377 141 403 184 403 c 0
 263 403 305 319 361 319 c 0
 390 319 415 337 438 380 c 1
 484 346 l 1
 448 283 402 257 359 257 c 0
EndSplineSet
Validated: 1
EndChar

StartChar: R
Encoding: 82 82 74
Width: 396
Flags: W
HStem: 0 21G<79 161> 424 74<226.13 332.063> 660 64<82.5215 189.451>
VStem: 79 82<0 355.717> 203 68<531.565 647.471>
LayerCount: 2
Fore
SplineSet
79 486 m 0
 162 486 203 539 203 586 c 0
 203 650 169 660 141 660 c 0
 118 660 96 649 55 619 c 1
 45 685 l 1
 85 711 119 724 150 724 c 0
 204 724 271 696 271 586 c 0
 271 520 194 486 147 486 c 1
 154 398 l 1
 157 398 l 1
 190 459 240 498 295 498 c 0
 316 498 331 495 347 488 c 1
 329 418 l 1
 314 422 304 424 284 424 c 0
 243 424 194 394 161 312 c 1
 161 0 l 1
 79 0 l 1
 79 486 l 0
EndSplineSet
Validated: 1
EndChar

StartChar: section
Encoding: 167 167 75
Width: 545
Flags: W
HStem: 0 21G<82 164 389 471> 427 72<206.465 345.796>
VStem: 82 82<0 381.088> 389 82<0 381.088>
LayerCount: 2
Fore
SplineSet
82 0 m 1
 82 308 l 2
 82 432 174 499 276 499 c 0
 378 499 471 432 471 308 c 2
 471 0 l 1
 389 0 l 1
 389 297 l 2
 389 388 340 427 276 427 c 0
 212 427 164 392 164 297 c 2
 164 0 l 1
 82 0 l 1
EndSplineSet
Validated: 1
EndChar

StartChar: equal
Encoding: 61 61 76
Width: 558
InSpiro: 1
Flags: W
HStem: 192 62<184 493> 406 62<64 373>
LayerCount: 2
Fore
SplineSet
184 254 m 1
 493 254 l 1
 493 192 l 1
 64 192 l 1
 64 254 l 1
 373 406 l 1
 64 406 l 1
 64 468 l 1
 493 468 l 1
 493 406 l 1
 184 254 l 1
  Spiro
    184 254 v
    493 254 v
    493 192 v
    64 192 v
    64 254 v
    373 406 v
    64 406 v
    64 468 v
    493 468 v
    493 406 v
    0 0 z
  EndSpiro
EndSplineSet
Validated: 1
EndChar

StartChar: comma
Encoding: 44 44 77
Width: 264
Flags: W
HStem: -1 115<89.7644 145.859>
VStem: 146 61<-67.5687 0>
LayerCount: 2
Fore
SplineSet
76 -170 m 1
 56 -122 l 1
 113 -97 146 -53 146 0 c 5
 143 -1 139 -1 136 -1 c 0
 104 -1 77 19 77 56 c 0
 77 92 105 114 138 114 c 0
 181 114 207 77 207 17 c 0
 207 -69 157 -136 76 -170 c 1
EndSplineSet
Validated: 1
EndChar

StartChar: period
Encoding: 46 46 78
Width: 239
Flags: W
HStem: -12 126<75.6773 165.416>
VStem: 61 119<1.58984 100.243>
LayerCount: 2
Fore
SplineSet
121 -12 m 0
 88 -12 61 14 61 50 c 0
 61 88 88 114 121 114 c 0
 153 114 180 88 180 50 c 0
 180 14 153 -12 121 -12 c 0
EndSplineSet
Validated: 1
EndChar

StartChar: eight
Encoding: 56 56 79
Width: 514
Flags: W
HStem: 0 21G<364 447> 277 83<151 364> 618 20G<68 151>
VStem: 68 83<360 638> 364 83<0 277>
LayerCount: 2
Fore
SplineSet
364 0 m 1
 364 277 l 1
 68 277 l 1
 68 638 l 1
 151 638 l 1
 151 360 l 1
 447 360 l 1
 447 0 l 1
 364 0 l 1
EndSplineSet
Validated: 1
EndChar

StartChar: two
Encoding: 50 50 80
Width: 531
Flags: W
HStem: -12 66<172.545 355.085> 582 66<173.915 356.455>
VStem: 62 80<86.3157 207 319 547.416> 387 80<88.5838 317 429 549.684>
LayerCount: 2
Fore
SplineSet
467 317 m 1
 467 296 467 276 467 258 c 0
 467 176 465 119 443 72 c 0
 410 1 339 -12 262 -12 c 0
 135 -12 63 27 63 207 c 1
 142 207 l 1
 142 54 188 54 262 54 c 0
 321 54 356 55 375 108 c 0
 386 138 387 183 387 252 c 0
 387 272 387 293 387 317 c 1
 467 317 l 1
62 319 m 1
 62 340 62 360 62 378 c 0
 62 460 64 517 86 564 c 0
 119 635 190 648 267 648 c 0
 394 648 466 609 466 429 c 1
 387 429 l 1
 387 582 341 582 267 582 c 0
 208 582 173 581 154 528 c 0
 143 498 142 453 142 384 c 0
 142 364 142 343 142 319 c 1
 62 319 l 1
EndSplineSet
Validated: 1
EndChar

StartChar: five
Encoding: 53 53 81
Width: 530
Flags: W
HStem: -12 66<175.915 358.455> 582 66<174.545 357.085>
VStem: 64 80<88.5838 317 429 549.684> 389 80<86.3157 207 319 547.416>
LayerCount: 2
Fore
SplineSet
469 319 m 1
 389 319 l 1
 389 343 389 364 389 384 c 0
 389 453 388 498 377 528 c 0
 358 581 323 582 264 582 c 0
 190 582 144 582 144 429 c 1
 65 429 l 1
 65 609 137 648 264 648 c 0
 341 648 412 635 445 564 c 0
 467 517 469 460 469 378 c 0
 469 360 469 340 469 319 c 1
64 317 m 1
 144 317 l 1
 144 293 144 272 144 252 c 0
 144 183 145 138 156 108 c 0
 175 55 210 54 269 54 c 0
 343 54 389 54 389 207 c 1
 468 207 l 1
 468 27 396 -12 269 -12 c 0
 192 -12 121 1 88 72 c 0
 66 119 64 176 64 258 c 0
 64 276 64 296 64 317 c 1
EndSplineSet
Validated: 1
EndChar

StartChar: question
Encoding: 63 63 82
Width: 546
Flags: W
HStem: -12 68<197.86 341.161>
VStem: 54 78<124.203 291.834> 110 81<535.561 600.559> 407 79<126.823 304.12>
LayerCount: 2
Fore
SplineSet
265 -12 m 0xb0
 154 -12 54 70 54 203 c 0xd0
 54 326 131 396 247 432 c 1
 179 479 110 522 110 578 c 0
 110 677 199 686 344 704 c 0
 424 711 442 716 472 730 c 1
 489 655 l 1
 461 640 424 632 383 627 c 0
 242 610 191 614 191 568 c 0
 191 533 258 513 332 461 c 0
 421 398 486 338 486 221 c 0
 486 84 400 -12 265 -12 c 0xb0
132 206 m 0
 132 116 197 56 267 56 c 0
 355 56 407 125 407 222 c 0
 407 302 361 348 300 394 c 1
 196 368 132 301 132 206 c 0
EndSplineSet
Validated: 1
EndChar

StartChar: dollar
Encoding: 36 36 83
Width: 531
Flags: W
HStem: -12 67<222.162 397.011> 221 65<145 398> 431 67<210.71 349.16>
VStem: 59 84<141.482 221 286 355.32> 398 74<286 378.736>
LayerCount: 2
Fore
SplineSet
280 431 m 0
 220 431 158 390 145 286 c 1
 398 286 l 1
 398 380 355 431 280 431 c 0
293 -12 m 0
 162 -12 59 82 59 243 c 0
 59 401 167 498 279 498 c 0
 404 498 472 408 472 270 c 0
 472 253 471 237 468 221 c 1
 143 221 l 1
 151 112 221 55 303 55 c 0
 349 55 390 69 424 92 c 1
 454 38 l 1
 411 9 359 -12 293 -12 c 0
EndSplineSet
Validated: 1
EndChar

StartChar: seven
Encoding: 55 55 84
Width: 716
Flags: W
HStem: -12 21G<314 398> 583 73<137.914 278.686 433.322 576.086>
VStem: 314 84<-12 545.437>
LayerCount: 2
Fore
SplineSet
314 441 m 2
 314 542 285 583 208 583 c 0
 160 583 123 561 95 513 c 1
 39 550 l 1
 75 621 134 656 213 656 c 0
 281 656 327 632 356 593 c 1
 386 632 433 656 501 656 c 0
 580 656 639 621 675 550 c 1
 619 513 l 1
 591 561 554 583 506 583 c 0
 428 583 398 542 398 441 c 2
 398 -12 l 1
 314 -12 l 1
 314 141 314 441 314 441 c 2
EndSplineSet
Validated: 1
EndChar

StartChar: three
Encoding: 51 51 85
Width: 514
Flags: W
HStem: 0 21G<220 289> 84 68<163.473 220 289 346.556> 349 72<166.018 220 289 343.299> 580 70<164.694 220 289 340.933>
VStem: 57 66<189.329 311.966> 76 64<447.016 554.969> 220 69<0 84 152 349 421 580> 369 66<447.07 553.478> 387 71<188.722 311.969>
LayerCount: 2
Fore
SplineSet
220 349 m 1xfa
 167 348 123 308 123 246 c 0
 123 186 181 153 220 152 c 1
 220 349 l 1xfa
220 84 m 1
 119 87 57 173 57 246 c 0xfa80
 57 323 96 360 129 388 c 1
 106 415 76 431 76 502 c 0
 76 578 127 650 255 650 c 0
 382 650 435 577 435 501 c 0xf7
 435 433 412 419 382 391 c 1
 393 383 458 344 458 244 c 0xf280
 458 163 391 88 289 84 c 1
 289 0 l 1
 220 0 l 1
 220 84 l 1
220 580 m 1
 174 580 140 546 140 501 c 0xf6
 140 455 177 421 220 421 c 1
 220 580 l 1
289 152 m 1
 327 152 387 183 387 246 c 0xf280
 387 310 342 349 289 349 c 1
 289 152 l 1
289 421 m 1
 332 421 369 456 369 501 c 0xf3
 369 545 333 579 289 580 c 1
 289 421 l 1
EndSplineSet
Validated: 1
EndChar
